<svg xmlns="http://www.w3.org/2000/svg" width="42.744" height="42.722" viewBox="0 0 42.744 42.722">
  <g id="logo_UWr" transform="translate(-871.33 -1228.744)">
    <g id="_2410680934192" transform="translate(1000.33 1244.744)">
      <g id="Group_1" data-name="Group 1" transform="translate(-129 -16)">
        <path id="Path_3" data-name="Path 3" d="M1507.855,1734.844a1.685,1.685,0,0,1,1.679-1.217l.365-.036.621.146.755.182a1.558,1.558,0,0,1,1.667-.755l.73.231a4.842,4.842,0,0,0,2.227.536l-.669.9a4.452,4.452,0,0,0-.523,1.144,2.855,2.855,0,0,0-.231.974,6.061,6.061,0,0,0,.414,2.872,5.943,5.943,0,0,0,2.008,2.458l-.109,3.87c-2.191.669-4.43-.73-4.539-.681-1.2.779-3.76.681-4.333.621l-.109-3.809c.669.012,2.337-1.85,2.665-2.556a5.48,5.48,0,0,0,.487-3.03l-.608-.5c-1-.475-1.217-.779-1.168-1.144l.085.061c1.254.6,1.485.231,1.2-.012a2.817,2.817,0,0,0-2.616-.17Zm2.616,5.927c.268-.426.207-.474.633-.109l.414.414.316-.414c.256-.682.414-.256.73.049l.255.268.365-.414c.11-.158.207-.317.365,0,.061,0,.268.462.426.462.1.049.207-.365.3-.462.158-.219.207-.317.365-.219.268.268.158.523.523.84.426.414,1.1,1.254,1.521,1.777l.049.414a6.457,6.457,0,0,1-.937,1.825,2.311,2.311,0,0,1-.426-.779c-.256.365-.365.682-.621.84l-.572-.633-.572.633c-.426-.268-.426-.426-.682-.84l-.268.207-.462.633-.84-.791a2.018,2.018,0,0,1-.523,1l-.572-.633-.633.791-.3-.365-.584-.84-.621-1.363.779-.621.365-.475.682-.523c.158-.365.414-.463.523-.669Zm-.365.669c0-.146.633-.73.681-.669.256.256.572.572.682.669a2.548,2.548,0,0,1-.73,1.156c-.268-.268-.742-.791-.633-1.156Zm-.888,1c.049-.158.572-.682.633-.633.256.268.621.791.73.888a1.435,1.435,0,0,1-.73.949c-.219-.268-.73-.84-.633-1.2Zm-.84.73c0-.158.584-.523.633-.475a3.726,3.726,0,0,1,.523.888,7.815,7.815,0,0,1-.633.73c-.256-.3-.621-.779-.523-1.144Zm.742,1.2c.049-.158.572-.682.621-.633.365.365.255.365.475.73.1.268-.316.523-.584.84-.207-.316-.621-.572-.511-.937Zm7.144-.268a1.7,1.7,0,0,1-.462.791c-.109-.061-.426-.682-.365-.791a3.037,3.037,0,0,1,.3-.572,6.093,6.093,0,0,1,.523.572Zm-.049-.256c.158-.158.414-.426.316-.633a1.829,1.829,0,0,0-.426-.523c-.049.109-.146.219-.3.523,0,.061-.207.11.414.633Zm-.937.256c-.158.207-.365.73-.523.84-.207-.316-.475-.523-.523-.73a3.245,3.245,0,0,1,.572-.937,1.841,1.841,0,0,1,.475.828Zm-5.124-.256c0-.158.523-.572.584-.523.255.255.462.572.621.681a1.867,1.867,0,0,1-.572,1.144c-.268-.256-.73-.937-.633-1.3Zm.633-1.047a2.449,2.449,0,0,1,.73-.73c.207.255.462.621.572.779a1.588,1.588,0,0,1-.621,1c-.219-.316-.791-.681-.682-1.047Zm1.412.049c.049-.1.523-.828.572-.779.207.255.463.682.572.779a1.393,1.393,0,0,1-.523.949c-.207-.268-.682-.633-.621-.949Zm-.682,1.412a3.064,3.064,0,0,1,.682-.888c.207.207.365.633.523.73a1.753,1.753,0,0,1-.523.949c-.268-.268-.584-.475-.682-.791Zm1.412-.207c0-.158.463-.779.523-.73a10.528,10.528,0,0,1,.669.888c-.049.414-.3.523-.572.73-.207-.268-.73-.572-.621-.888Zm.572-1.2c.049-.1.523-.888.572-.828.207.256.475.73.572.828a2.506,2.506,0,0,1-.523,1c-.207-.268-.669-.633-.621-1Zm1.3-.1a3.293,3.293,0,0,1,.523-.949,6.083,6.083,0,0,1,.633.791,5.251,5.251,0,0,1-.523,1.047c-.207-.268-.73-.523-.633-.888Zm-3.237-1.314a2.594,2.594,0,0,1,.633-.669,3.335,3.335,0,0,0,.523.621,2.085,2.085,0,0,1-.523,1.156c-.219-.268-.682-.742-.633-1.107Zm2.458,0a1.874,1.874,0,0,1,.523-.669c.207.256.463.621.572.73a1.742,1.742,0,0,1-.475,1.047c-.207-.268-.73-.742-.621-1.107Zm-1.254,0c0-.1.572-.669.621-.621.219.256.475.475.584.621a2.6,2.6,0,0,1-.584,1.2c-.207-.316-.73-.779-.621-1.2Zm-.182-7.338c.3.085.572.243.767.268a.678.678,0,0,0-.353.195c-.329.28-.8.073-1.01-.036C1511.92,1734.394,1512.127,1734.1,1512.589,1734.1Zm-1.071,17.476c0,.365.523.828.682.937a2.287,2.287,0,0,0,.828-1.047l-.779-.621Zm.84-1.57a2.267,2.267,0,0,0,.572,1l.3.3a4.427,4.427,0,0,0,.742-1.351l-.791-.572Zm-1.838.109a3.271,3.271,0,0,0,.523,1.047l.316.255a4.315,4.315,0,0,0,.779-1.363l-.779-.572Zm.475,4.9a9.939,9.939,0,0,1,1.254-.049,5.7,5.7,0,0,1,1.1.1c.365-.207-.255-.463-1.253-.523-1.1.109-1.1.475-1.1.475Zm-.207.84a7.129,7.129,0,0,0,1.619.049,4.2,4.2,0,0,0,1.412-.158c.523.365-.365.937-1.57,1.047-1.46-.268-1.46-.937-1.46-.937Zm4.126-6.839a10.609,10.609,0,0,1-2.714,4.016,8.86,8.86,0,0,1-2.568-3.919c.158-.158.682.523,1.047.475.207,0,.475-.523.682-.572.316,0,.572.73.84.621.3-.109.73-.572.937-.621.255-.061.475.462.73.462.414,0,.621-.462,1.047-.462Zm1.351,10.125a4.88,4.88,0,0,1-2.556-1.777c.365,1.984.84,1.886,2.507,2.556Zm-3.76-1.935.061,4.856c1.558-2.191-.061-5.221-.061-4.856Zm-3.237,2.823c.061-.268,1.521-.84,1.777-2.617.426,1.1.207,2.568-1.935,3.3Zm-1.509-12.328a44.036,44.036,0,0,0,9.03.061l-.1,1.667c-.791.475-.426,1.144,0,1.667l.1,3.444a3.5,3.5,0,0,1-.937,1.935c-.937-.986-1.3-1.826-1.1-2.507a2.205,2.205,0,0,0-.109-1.716,1.859,1.859,0,0,0-.414,2.6,2.044,2.044,0,0,1-.109,1.984,4.27,4.27,0,0,0,2.616,2.093v2.032l-.937.158a3.938,3.938,0,0,1-1.984-.682c-.426,1.46-.316,2.191-1.412,3.188a3.676,3.676,0,0,1-1.728-3.079,2.642,2.642,0,0,1-2.665.572l.061-2.093a2.546,2.546,0,0,0,2.239-2.191c-.986-.572-.682-1.46-.049-2.3.414-1.509.365-1.765-.572-2.349l-.316.949v.986l.109.633-.158,1.1-.523.669-.791-.986-.146-1.57-.061-2.6c1-.949.572-1.254-.049-2.349Zm11.123,5.854a3.081,3.081,0,0,1,1.412,2.142l.572.316c-.158.937-1.728.207-1.935-.475Zm-13.058-.049c-.523.207-1.047.779-1.412,2.142l-.572.3c.158.888,1.728.158,1.935-.463Zm13.216,4.953a3.924,3.924,0,0,0,1.935-.462c.049,0,.1-.061.146-.061.158,0,.219,0,.061.523a2.714,2.714,0,0,1-2.142,1.777Zm-13.74.316a4.086,4.086,0,0,1-1.984-.475c-.049,0-.1-.049-.158-.049-.207,0-.256,0-.1.523a2.861,2.861,0,0,0,2.239,1.777Zm11.172-19.946a4.353,4.353,0,0,0,2.458.049c.207,0,.268-.158.207.158-.207.937-2.4,1.363-2.763-.109-.049-.207-.049-.1.1-.1Zm.84,1.351a1.672,1.672,0,0,1-1.509-1.619c0-.207-.061-.207.158-.146a3.027,3.027,0,0,0,1.509.1,1.6,1.6,0,0,0,0-.682c-.207-.3-.523-.669-.365-.779,0-.049.256,0,.523,0,.1,0,.049-.937.049-.888s-.316-.256-.316-.414c0-.109.742-.207.949,0,.1.1-.268.365-.268.463a1.645,1.645,0,0,0,.11.84,1.462,1.462,0,0,1,.462,0c.11.11-.1.475-.3.73a.616.616,0,0,0-.158.73,2.856,2.856,0,0,0,1.46-.1c.109-.061.207,0,.207.1a2.066,2.066,0,0,1-1.667,1.667v20.9l.256.158c.888.523.84,1.144-.158,1.509l-.3.158c.523,1.351-1.1,1.46-.633.049l-.316-.207c-.937-.572-.986-1.1-.1-1.46l.414-.158Zm-11.744-1.46a4.957,4.957,0,0,0,2.446.109c.219-.049.268-.207.219.1-.219.949-2.41,1.363-2.775-.1-.049-.158-.049-.109.109-.049Zm.828,1.363a1.672,1.672,0,0,1-1.509-1.619c0-.207-.049-.207.158-.158a3.042,3.042,0,0,0,1.509.109,1.282,1.282,0,0,0,0-.681c-.207-.268-.523-.682-.365-.791,0-.049.268,0,.523,0,.109,0,.049-.937.049-.888s-.3-.256-.3-.414a1,1,0,0,1,.937,0c.1.109-.268.365-.268.475a1.59,1.59,0,0,0,.11.828,1.542,1.542,0,0,1,.475,0c.1.109-.11.475-.365.742a.661.661,0,0,0-.109.73,2.844,2.844,0,0,0,1.46-.109c.109-.049.207,0,.207.158a2.092,2.092,0,0,1-1.667,1.619v20.883l.255.207c.888.475.84,1.156-.146,1.46l-.317.158c.523,1.363-1.1,1.46-.633.061l-.3-.219c-.949-.572-1-1.034-.158-1.46l.462-.158Zm-5.379,13.788c.061.049,1.777-.316,1.838-1.254.146-1.2-.158-2.3,1.035-3.237,2.2.3.474,2.763-.1,3.444-1.2,1.2-1,1.2-2.665,1.254,0,0-.158-.268-.109-.207Zm-1.509-3.14c1.144-.572,1.509-.779,1.826-2.191.109-1.509,1.3-1.984,1.363,0-.682,2.191-1.46,2.763-3.76,2.458,0,0,.462-.219.572-.268Zm-1.667-3.335.621-.109c1.46-1.047,1-2.872,1.57-3.286.523-.061.73.158.621.669l-.049.84-.475,1.2c-1.1,1.57-2.288.779-2.288.682Zm7.935-1.777c0,.572-4.174-1.46-3.5-5.9,2.41.049,1.57-1.57.158-.73.207-.73.268-1.886-.414-1.57a1.4,1.4,0,0,0-.049,1.619c-.73-.365-1.2-.414-1.363-.316-.158.523,0,.791,1.2,1-.426,3.554.621,6.365,3.967,7.57l.1,4.333c-1.351,2.616-4.016,5.586-6.365,1.667,1.509.365,2.617-.1,2.872-1.3l.256-1.509-.779,1.047c-1.57.572-2.665.779-3.967-1.156l.937-.049.682-.268a2.706,2.706,0,0,0,1.412-2.556c-.73.73-3.03,1.777-3.919-.365,1.144,0,1.667-.462,1.984-1.777v-1.716a1.15,1.15,0,0,1-1.3-.158c1.667-.84,1.667-2.044,1.935-3.6.3-4.126,5.16-4.552,4.953-.682l-.462.73c.146,1.412-.061,2.556,1.667,2.617Zm17.853,8.093c-.049.049-1.777-.268-1.874-1.254-.11-1.2.207-2.3-1-3.237-2.19.365-.523,2.763.11,3.493,1.2,1.156.986,1.156,2.665,1.2,0,0,.158-.268.1-.207Zm1.46-3.14a2.669,2.669,0,0,1-1.825-2.191c-.049-1.509-1.3-1.984-1.351,0,.681,2.191,1.509,2.775,3.809,2.4a6.1,6.1,0,0,1-.633-.207Zm1.728-3.335-.621-.109c-1.521-1.047-1-2.921-1.619-3.286-.523-.049-.73.158-.633.682l.049.828.475,1.2c1.144,1.57,2.3.73,2.349.682Zm-7.983-1.57c0,.572,4.174-1.667,3.493-6.109-2.4.049-1.57-1.57-.158-.73-.255-.73-.255-1.886.426-1.521a1.422,1.422,0,0,1,.049,1.57c.73-.365,1.2-.414,1.351-.317.158.523,0,.791-1.193,1,.414,3.554-.682,6.523-4.028,7.679v4.284c1.363,2.556,4.028,5.525,6.377,1.619-1.521.365-2.616-.109-2.872-1.314l-.268-1.509.791,1.047c1.509.572,2.665.779,3.967-1.156l-1-.049-.621-.256a2.774,2.774,0,0,1-1.46-2.568c.73.73,3.018,1.728,3.967-.365-1.156,0-1.679-.462-1.984-1.777v-1.716a1.092,1.092,0,0,0,1.3-.207c-1.728-.791-1.728-2.045-1.984-3.6-.316-4.077-5.172-4.491-5.014-.633l.523.73c-.158,1.412.1,2.617-1.667,2.617Z" transform="translate(-1490.956 -1727.187)" fill="#00669e" fill-rule="evenodd"/>
        <path id="Path_4" data-name="Path 4" d="M1031.067,1246.9a21.366,21.366,0,1,1-28.575,9.833,21.414,21.414,0,0,1,28.575-9.833Zm-.426.852a20.353,20.353,0,1,1-27.163,9.383,20.379,20.379,0,0,1,27.163-9.383Z" transform="translate(-1000.33 -1244.744)" fill="#00669e" fill-rule="evenodd"/>
      </g>
    </g>
  </g>
</svg>
